<?xml version="1.0" encoding="UTF-8"?><svg id="Illustration" xmlns="http://www.w3.org/2000/svg" xmlns:xlink="http://www.w3.org/1999/xlink" viewBox="0 0 3710 3710"><defs><style>.cls-1{fill:url(#linear-gradient);}.cls-2,.cls-3,.cls-4,.cls-5,.cls-6,.cls-7,.cls-8{fill:#fff;}.cls-9{fill:#91b3fa;}.cls-10{fill:#7d97f4;}.cls-11{fill:url(#linear-gradient-8);}.cls-12{fill:url(#linear-gradient-9);}.cls-13{fill:url(#linear-gradient-3);}.cls-14{fill:url(#linear-gradient-4);}.cls-15{fill:url(#linear-gradient-2);}.cls-16{fill:url(#linear-gradient-6);}.cls-17{fill:url(#linear-gradient-7);}.cls-18{fill:url(#linear-gradient-5);}.cls-19{opacity:.3;}.cls-20{opacity:.76;}.cls-21{opacity:.79;}.cls-22{opacity:.71;}.cls-23,.cls-7{opacity:.75;}.cls-24{fill:url(#linear-gradient-14);}.cls-25{fill:url(#linear-gradient-18);}.cls-26{fill:url(#linear-gradient-22);}.cls-27{fill:url(#linear-gradient-20);}.cls-28{fill:url(#linear-gradient-21);}.cls-29{fill:url(#linear-gradient-23);}.cls-30{fill:url(#linear-gradient-15);}.cls-31{fill:url(#linear-gradient-19);}.cls-32{fill:url(#linear-gradient-16);}.cls-33{fill:url(#linear-gradient-17);}.cls-34{fill:url(#linear-gradient-13);}.cls-35{fill:url(#linear-gradient-12);}.cls-36{fill:url(#linear-gradient-10);}.cls-37{fill:url(#linear-gradient-11);}.cls-38{fill:url(#linear-gradient-27);}.cls-39{fill:url(#linear-gradient-24);}.cls-40{fill:url(#linear-gradient-26);}.cls-41{fill:url(#linear-gradient-25);}.cls-42{fill:url(#linear-gradient-28);}.cls-43{fill:url(#linear-gradient-29);}.cls-44{fill:url(#linear-gradient-30);}.cls-3{opacity:.6;}.cls-4{opacity:.62;}.cls-5{opacity:.7;}.cls-6{opacity:.72;}.cls-8{opacity:.65;}</style><linearGradient id="linear-gradient" x1="3651.37" y1="4133.56" x2="1110.86" y2="978.4" gradientUnits="userSpaceOnUse"><stop offset="0" stop-color="#dae3fe"/><stop offset="1" stop-color="#e9effd"/></linearGradient><linearGradient id="linear-gradient-2" x1="2341.18" y1="440.35" x2="-687.7" y2="5935.61" gradientUnits="userSpaceOnUse"><stop offset="0" stop-color="#09005d"/><stop offset="1" stop-color="#1a0f91"/></linearGradient><linearGradient id="linear-gradient-3" x1="1432.55" y1="-1134.03" x2="1536.05" y2="-78.32" gradientUnits="userSpaceOnUse"><stop offset="0" stop-color="#4f52ff"/><stop offset="1" stop-color="#4042e2"/></linearGradient><linearGradient id="linear-gradient-4" x1="1209.26" y1="1130.75" x2="1878.27" y2="1130.75" xlink:href="#linear-gradient-3"/><linearGradient id="linear-gradient-5" x1="-5865.72" y1="3240.68" x2="-5491.11" y2="2276.31" gradientTransform="translate(-3446.32) rotate(-180) scale(1 -1)" gradientUnits="userSpaceOnUse"><stop offset="0" stop-color="#febbba"/><stop offset="1" stop-color="#ff928e"/></linearGradient><linearGradient id="linear-gradient-6" x1="-5871.41" y1="6342.63" x2="-4633.28" y2="-8127.98" xlink:href="#linear-gradient-5"/><linearGradient id="linear-gradient-7" x1="-5826.9" y1="1715.06" x2="-5668.12" y2="1715.06" xlink:href="#linear-gradient-5"/><linearGradient id="linear-gradient-8" x1="-5317.01" y1="3268.03" x2="-4939.28" y2="2688.51" gradientTransform="translate(-3211.16) rotate(-180) scale(1 -1)" xlink:href="#linear-gradient-3"/><linearGradient id="linear-gradient-9" x1="-5657.34" y1="3444.52" x2="-5238.22" y2="2720.11" gradientTransform="translate(-3211.16) rotate(-180) scale(1 -1)" xlink:href="#linear-gradient-3"/><linearGradient id="linear-gradient-10" x1="2509.21" y1="1681.21" x2="2178.04" y2="2129.67" xlink:href="#linear-gradient-3"/><linearGradient id="linear-gradient-11" x1="-5653.49" y1="1360.77" x2="-5540.72" y2="1360.77" xlink:href="#linear-gradient-5"/><linearGradient id="linear-gradient-12" x1="3517.71" y1="1202.85" x2="3055.44" y2="1354.63" gradientUnits="userSpaceOnUse"><stop offset="0" stop-color="#ff928e"/><stop offset="1" stop-color="#fe7062"/></linearGradient><linearGradient id="linear-gradient-13" x1="-4991.83" y1="1425.07" x2="-5967.19" y2="1983.83" xlink:href="#linear-gradient-5"/><linearGradient id="linear-gradient-14" x1="-4894.91" y1="1594.24" x2="-5870.27" y2="2153" xlink:href="#linear-gradient-5"/><linearGradient id="linear-gradient-15" x1="-5465.66" y1="1360.73" x2="-5684.81" y2="1040.27" xlink:href="#linear-gradient-5"/><linearGradient id="linear-gradient-16" x1="-5346.57" y1="1131.77" x2="-5657.03" y2="1535.37" gradientTransform="translate(-3211.16) rotate(-180) scale(1 -1)" xlink:href="#linear-gradient-2"/><linearGradient id="linear-gradient-17" x1="3091.88" y1="-28.43" x2="2654.64" y2="1585.99" gradientUnits="userSpaceOnUse"><stop offset="0" stop-color="#e1473d"/><stop offset="1" stop-color="#e9605a"/></linearGradient><linearGradient id="linear-gradient-18" x1="3018.21" y1="366.9" x2="2749.14" y2="1167.23" xlink:href="#linear-gradient-12"/><linearGradient id="linear-gradient-19" x1="2923.55" y1="154.12" x2="2800.22" y2="1350.98" xlink:href="#linear-gradient-12"/><linearGradient id="linear-gradient-20" x1="837.89" y1="9844.26" x2="1493.45" y2="9844.26" gradientTransform="translate(-7542.56 8227.37) rotate(-116.39)" xlink:href="#linear-gradient-12"/><linearGradient id="linear-gradient-21" x1="1526.25" y1="9683.87" x2="1565.18" y2="9683.87" gradientTransform="translate(-7542.56 8227.37) rotate(-116.39)" xlink:href="#linear-gradient-12"/><linearGradient id="linear-gradient-22" x1="1732.75" y1="9974.32" x2="1759.68" y2="9974.32" gradientTransform="translate(-7542.56 8227.37) rotate(-116.39)" xlink:href="#linear-gradient-12"/><linearGradient id="linear-gradient-23" x1="1090.88" y1="10263.31" x2="1766.76" y2="10263.31" gradientTransform="translate(-7542.56 8227.37) rotate(-116.39)" xlink:href="#linear-gradient-12"/><linearGradient id="linear-gradient-24" x1="1021.97" y1="10393.66" x2="1060.42" y2="10393.66" gradientTransform="translate(-7542.56 8227.37) rotate(-116.39)" xlink:href="#linear-gradient-12"/><linearGradient id="linear-gradient-25" x1="956.72" y1="2292.87" x2="713.52" y2="3182.85" xlink:href="#linear-gradient-12"/><linearGradient id="linear-gradient-26" x1="449.44" y1="10368.12" x2="468.68" y2="10368.12" gradientTransform="translate(-7542.56 8227.37) rotate(-116.39)" xlink:href="#linear-gradient-12"/><linearGradient id="linear-gradient-27" x1="440.48" y1="10164.89" x2="805.59" y2="10164.89" gradientTransform="translate(-7542.56 8227.37) rotate(-116.39)" xlink:href="#linear-gradient-12"/><linearGradient id="linear-gradient-28" x1="610.92" y1="10514.5" x2="1031.4" y2="10514.5" gradientTransform="translate(-7542.56 8227.37) rotate(-116.39)" xlink:href="#linear-gradient-12"/><linearGradient id="linear-gradient-29" x1="563.88" y1="10534.3" x2="593" y2="10534.3" gradientTransform="translate(-7542.56 8227.37) rotate(-116.39)" xlink:href="#linear-gradient-12"/><linearGradient id="linear-gradient-30" x1="1452.16" y1="2626.42" x2="1208.96" y2="3443.96" xlink:href="#linear-gradient-12"/></defs><path class="cls-1" d="M2960.3,2883.83c-58.78,61.14-114.41,100.56-158.35,131.71-516.57,366.15-1127.81,259.42-1257.71,233.36-191.83-38.49-562.63-112.89-830.71-424.33-405.59-471.19-342.43-1213.53-27.83-1703.56,57.55-89.63,361.52-587.13,979.34-666.91,373.9-48.28,809.75,49.1,1125.37,310.33,662.53,548.35,615.37,1656.1,169.9,2119.4Z"/><g><g><path class="cls-10" d="M1867.5,3173.52s564.08-1425,1402.06-1580.66c14.87-2.76,28.42,9.12,27.69,24.23-8.47,175.77-115.81,1106.03-1429.74,1556.43Z"/><path class="cls-4" d="M3119,1823.99c-42.79,61.06-87.63,120.52-133.08,179.53-11.35,14.76-22.95,29.33-34.41,44-11.55,14.6-22.86,29.4-34.62,43.84l-35.14,43.42c-11.77,14.43-23.28,29.07-35.34,43.26-23.94,28.52-47.66,57.24-71.79,85.61l-73.15,84.45c-49.63,55.54-99.22,111.13-150.37,165.29l-38.07,40.9c-12.54,13.78-25.83,26.84-38.71,40.29l-77.7,80.35-79.7,78.38c-13.32,13.03-26.5,26.21-40.07,38.97l-41.11,37.88c-27.46,25.19-54.64,50.7-82.57,75.38l-84.9,72.75-21.32,18.07c-7.17,5.95-14.13,12.14-21.46,17.9l-43.86,34.67c-14.58,11.6-29.36,22.95-44.03,34.43-14.68,11.46-29.39,22.89-44.18,34.21-1.13,.87-2.75,.65-3.62-.48-.83-1.09-.66-2.64,.36-3.52l.07-.06c14.13-12.13,28.34-24.13,42.58-36.11,14.25-11.97,28.38-24.06,42.72-35.9l42.89-35.66c14.14-12.07,27.84-24.66,41.87-36.86l83.99-73.4,82.26-75.34,41.16-37.64c6.88-6.25,13.43-12.86,20.17-19.26l20.18-19.25,80.7-77.05c52.49-52.7,105.86-104.59,156.54-159.08,25.6-27,51.5-53.72,76.23-81.53,24.94-27.61,50.1-55.02,74.85-82.8l73.4-84.09c24.22-28.25,48.02-56.85,72.05-85.26,12.1-14.14,23.66-28.72,35.47-43.09l35.28-43.26c11.8-14.38,23.16-29.13,34.75-43.67,11.51-14.62,23.16-29.13,34.55-43.84,45.41-58.93,90.19-118.45,132.83-179.35l.03-.04c.82-1.17,2.43-1.45,3.59-.63,1.17,.82,1.45,2.43,.64,3.59h0Z"/></g><g class="cls-21"><path class="cls-9" d="M1730.81,2356.27s274.22-1258.34,1102.03-1910.64c10.79-8.51,26.77-3.13,30.06,10.21,52.07,210.71,323.19,1554.67-1132.1,1900.43Z"/><path class="cls-4" d="M2744.95,808.64c-9.51,36.51-20.57,72.47-32.24,108.27-11.69,35.78-23.98,71.38-37.03,106.69-26.18,70.6-54.7,140.34-85.43,209.11-7.62,17.22-15.66,34.25-23.47,51.39-7.86,17.11-16.35,33.93-24.49,50.91-8.09,17.01-16.83,33.7-25.31,50.51l-12.84,25.17-13.28,24.93c-35.38,66.5-72.66,132.05-112.84,195.81-40.3,63.66-82.18,126.39-127.36,186.73-5.59,7.58-11.08,15.24-16.76,22.75l-17.33,22.33-17.33,22.32c-5.81,7.41-11.45,14.97-17.54,22.16l-36,43.59-9.04,10.86-9.36,10.59-18.72,21.17c-99.35,113.36-210.56,216.26-330.8,306.86-.99,.75-2.4,.55-3.15-.44-.73-.97-.56-2.33,.37-3.09l.05-.04,43.66-35.61,21.86-17.74,21.16-18.58,42.26-37.19,40.86-38.72c6.76-6.5,13.73-12.79,20.39-19.39l19.79-20.01c13.13-13.4,26.53-26.54,39.42-40.16,25.35-27.66,51.3-54.76,75.43-83.51l18.4-21.28,9.2-10.64,8.88-10.92,35.6-43.57c6.04-7.18,11.62-14.72,17.38-22.12l17.17-22.28,17.17-22.28c5.63-7.5,11.06-15.15,16.6-22.71,44.75-60.23,86.21-122.84,126.1-186.36,40.1-63.42,77.57-128.49,113.04-194.63l13.33-24.79,12.88-25.03c8.52-16.72,17.29-33.31,25.41-50.23,16.66-33.63,32.74-67.54,48.57-101.58,31.42-68.18,60.62-137.4,87.57-207.49,13.68-34.97,26.59-70.24,38.92-105.71,6.19-17.73,12.14-35.53,17.9-53.4,5.85-17.83,11.44-35.79,16.6-53.78v-.04c.36-1.19,1.6-1.88,2.79-1.54,1.18,.34,1.86,1.55,1.56,2.73Z"/></g></g><g class="cls-20"><path class="cls-9" d="M1300.61,2288.73s-106.94-1116.26-755.16-1765.82c-8.45-8.47-22.82-5.47-27.05,5.72-66.81,176.78-440.19,1310.67,782.21,1760.1Z"/><path class="cls-4" d="M588.06,845.27c11.06,64.36,25.38,128.28,41.75,191.55,16.11,63.35,34.24,126.19,54.4,188.35,10.2,31.04,20.61,62.01,31.53,92.8,5.27,15.46,11.14,30.71,16.78,46.04l8.55,22.96,8.96,22.8c23.83,60.82,49.52,120.93,77.62,179.88,27.89,59.04,57.23,117.45,89.67,174.13,4.01,7.11,7.91,14.28,11.99,21.35l12.53,21.04,12.53,21.04c4.21,6.99,8.25,14.09,12.72,20.92l26.24,41.35,6.53,10.36,6.84,10.15,13.69,20.3c17.86,27.35,37.46,53.48,56.49,80.02,9.73,13.11,19.94,25.86,29.89,38.81l15.02,19.35c5.07,6.4,10.44,12.56,15.6,18.88l31.26,37.73,32.63,36.56,16.34,18.27,17.03,17.62,33.99,35.35,.04,.04c.86,.9,.83,2.32-.06,3.18-.87,.84-2.25,.83-3.11,0-94.77-90.6-180.4-191.03-254.68-299.29l-14.02-20.24-7.01-10.12-6.7-10.33-26.64-41.41c-4.53-6.85-8.62-13.96-12.88-20.97l-12.69-21.1-12.69-21.1c-4.14-7.08-8.09-14.28-12.15-21.41-32.85-56.85-62.59-115.42-90.87-174.64-28.14-59.31-53.58-119.85-77.28-181.03l-8.9-22.94-8.49-23.09c-5.59-15.42-11.42-30.75-16.65-46.3-5.28-15.53-10.88-30.95-15.9-46.56-4.97-15.63-10.14-31.2-14.94-46.88-38.54-125.37-70.55-252.91-89.45-382.81-.18-1.23,.67-2.37,1.9-2.55,1.21-.18,2.33,.64,2.54,1.84l.02,.09Z"/></g><g><path class="cls-15" d="M725.79,589.3c-9.28,438.04-39.39,1949.02-25.02,2484.46,1.52,56.72,40.39,102.25,88.88,104.11,239.82,9.18,1118.98,32.45,1511.24,13.2,81.7-4.01,146.67-81.43,148.37-177.07,8.15-459.78,26.14-1752.97-16.61-2345.39-5.12-70.98-52.74-127.5-113.33-134.59-261.17-30.57-1144.11-105.28-1483-79.55-61.12,4.64-109.01,63.21-110.53,134.83Z"/><path class="cls-10" d="M832.79,723.69c-12.91,353.57-53.63,1529.8-40.7,1964.74,1.89,63.57,44.72,114.98,99,118.69,223.5,15.3,986.02,49.04,1313.84,18.33,59.03-5.53,105.35-61.38,108.54-130.55,16.61-360.71,64.31-1455.95,51.92-1886.02-1.98-68.61-47.41-124.64-105.85-130.78-241.79-25.4-1052.06-85.83-1330.63-68.05-52.29,3.34-93.89,52.42-96.12,113.63Z"/><path class="cls-13" d="M1432.31,541.35h0c0,13.44,8.95,24.53,20.43,25.23,56.64,3.47,216.21,13.29,287.52,18.13,14.06,.96,25.1-13.83,22.43-30.01l-.45-2.76c-1.82-11.04-9.65-19.35-19.22-20.37-48.2-5.17-193.66-19.5-290.03-15.47-11.58,.48-20.68,11.71-20.68,25.26Z"/><g><g><circle class="cls-14" cx="1543.76" cy="1130.75" r="334.5"/><path class="cls-2" d="M1646.18,1004.35c0,56.64-45.92,117.79-102.56,117.79s-102.56-61.15-102.56-117.79,45.92-96.82,102.56-96.82,102.56,40.18,102.56,96.82Z"/><path class="cls-2" d="M1416.35,1340.21h250.36c26.35,0,49.69-17.03,57.72-42.13l13.47-42.11c9.86-30.83-6.17-64.21-36.57-75.32-101.89-37.25-207.24-32.47-315.16,3.44-30.23,10.06-47.01,42.4-38.67,73.15l10.37,38.24c7.16,26.4,31.13,44.73,58.49,44.73Z"/></g><g class="cls-22"><rect class="cls-8" x="957.77" y="1809.57" width="1234.32" height="189.9" rx="6.75" ry="6.75"/><rect class="cls-8" x="951.11" y="2119.4" width="1234.32" height="189.9" rx="6.75" ry="6.75"/><rect class="cls-8" x="1151.27" y="2436.73" width="797.38" height="242.1" rx="8.33" ry="8.33"/></g><rect class="cls-7" x="1012.45" y="1852.58" width="735.19" height="105.5" rx="12" ry="12"/><g class="cls-23"><circle class="cls-2" cx="1037.98" cy="2209.06" r="43.31" transform="translate(-766.36 565.37) rotate(-22.5)"/><circle class="cls-2" cx="1156.82" cy="2211.28" r="43.31"/><circle class="cls-2" cx="1271.19" cy="2216.83" r="43.31" transform="translate(-1178.4 2944.7) rotate(-76.72)"/><circle class="cls-2" cx="1390.03" cy="2219.06" r="43.31"/><circle class="cls-2" cx="1508.85" cy="2217.94" r="43.31"/><circle class="cls-2" cx="1627.69" cy="2220.16" r="43.31"/></g></g></g><g><path class="cls-18" d="M2122.28,2361.55l132.69,33.17-33.17,248.79s49.76,49.76,66.34,116.1c16.59,66.34,31.88,344.91,31.88,344.91l31.48,19.03,3.83,15.89-91.6,123.16,15.19-98.03c2.41-15.56-1.77-47.12-.45-47.78-49.76-132.69-156.19-506.47-156.19-506.47v-248.79Z"/><path class="cls-16" d="M2083.51,3141.16c1.44-.02,2.85,.09,4.29,0-6.41-79.99-35.71-432.04-65.04-563.99-33.17-149.27,49.76-447.82,49.76-447.82l149.28,149.28-82.93,281.96c56.83,85.25-9.27,584.48-7.85,584.26l-.09,1.11,21.64,29.75-2.63,16.13-132.19,78.01,52.01-84.47c8.26-13.41,12.82-28.61,13.75-44.22Z"/><path class="cls-17" d="M2251.41,1467.3s290.64,327.57,0,495.52l-29.61-21.44s144.29-138.17,0-307.32l29.61-166.76Z"/><path class="cls-11" d="M2009.04,3282.07h42.19c7.9,0,15.34-3.62,20.16-9.88,13.15-17.09,40.4-50.43,53.43-51.3,17.54-1.17,15.3,61.18,15.3,61.18h9.83l12.45-77.48c3.13-19.49-6.56-38.81-24.07-47.94h0s-4.01,29.65-25.75,42.76c-21.74,13.12-88.46,60.08-88.46,60.08,0,0-8.17-1.17-17.15,.46-13.31,2.41-11.45,22.12,2.07,22.12Z"/><path class="cls-12" d="M2260.46,3277.27l38.88-16.36c7.28-3.06,12.74-9.29,14.75-16.93,5.5-20.85,17.68-62.15,29.35-68,15.71-7.88,37.82,50.46,37.82,50.46l9.06-3.81-18.57-76.25c-4.67-19.18-21.1-33.23-40.77-34.86h0s7.8,28.88-7.15,49.4c-14.95,20.52-58.24,89.69-58.24,89.69,0,0-7.98,2.1-15.63,7.07-11.34,7.38-1.98,24.83,10.49,19.58Z"/><path class="cls-36" d="M2034.51,1876.94s4.88,29.9-2.27,112.09c-7.15,82.19-41.31,275.16-34.35,459.79,0,0,97.12,22.63,265.85,11.91,0,0,71.21-288.26,53.86-397.85-17.35-109.59-111.45-188.2-111.45-188.2l-171.64,2.26Z"/><polygon class="cls-37" points="2106.27 1327.72 2094.4 1467.3 2207.17 1467.3 2179.13 1254.24 2106.27 1327.72"/><path class="cls-35" d="M2240.58,1448c-38.92-2.15-125.94-6.12-187.59-2.76-32.46,1.77-59.65,25.06-66.29,56.88l-15.04,72.06c-5.6,26.84-4.76,54.62,2.44,81.08l60.39,221.69s53.72,32.28,171.64-2.26c0,0,103.56-246.96,61.17-404.94-3.29-12.27-14.05-21.04-26.74-21.74Z"/><path class="cls-34" d="M1989.66,1489.19c-16.61,43.76-31.62,89.64-47.73,132.62-8.2,21.51-16.51,42.59-25.4,61.95-4.5,9.64-9.44,18.5-13.97,26.54-4.54,7.95-9.65,14.57-12.32,17.62-.52,.45,1.23,.8,1.81,.82,.35,.04-11.23,1.9-14.78,2.49l-13.88-.08c-19.9-1.02-42.44-4.53-65.04-8.92-45.6-8.5-93-20.44-141.68-29.47l-.37-.07c-9.31-1.73-18.27,4.42-19.99,13.74-1.14,6.14,1.17,12.14,5.53,16,19.63,17.28,40.43,31.47,62.01,45.28,10.86,6.64,21.91,13.15,33.15,19.4,11.46,5.84,22.94,11.72,34.87,17.17,24.02,10.47,48.84,20.11,77.43,26.3,7.51,1.26,14.93,2.58,22.66,3.61,8.67,.3,16.54,1.07,26.01,.52,5.03-.5,10.08-1.12,15.12-1.85,2.69-.47,4.66-.52,7.92-1.42,3.45-1.04,6.9-2.2,10.3-3.47,7.1-2.55,11.69-5.63,17.46-8.84,4.79-3.16,9.16-6.46,13.39-9.84,15.63-13.31,25.33-26.53,33.89-39.21,8.53-12.67,15.29-25.37,21.36-37.82,12.18-24.86,21.68-49.49,29.4-74.29,15.63-49.7,26.22-98.55,30.69-150.43,2.14-24.85-16.27-46.73-41.12-48.87-20.57-1.77-39.1,10.53-46.09,28.92l-.59,1.6Z"/><path class="cls-24" d="M1671.98,1715.06l-20.12-47.77-105.92-26.39s-8.47,18.36,36.01,26.39c0,0-15.89,17.56-7.41,38.22,8.47,20.65,98.51,41.35,97.45,9.55Z"/><path class="cls-30" d="M2058.52,1166.53c-4.03,2.37-35.75,114.28-9.17,161.19,26.59,46.92,107.78-5.63,129.78-73.48,22-67.84-13.35-150.98-120.61-87.72Z"/><path class="cls-32" d="M2268.95,1254.24c18.21,89.22,78.55,64.81,121.29,104.5,69.27,64.34,168.35-1.99,264.68,58.98,69.54,44.02,103.05,156.62,69.68,247.54-46.22,125.92-204.18,177.7-286.04,139.35-78.23-36.65-67.09-146.43-172.36-188.86-44.69-18.01-66.75-6.31-93.51-33-46.85-46.73-34.21-137.42-29.34-172.36,10.57-75.81,35.98-89.53,23.84-122.85-23.63-64.8-133.84-51.43-143.02-97.18-8.36-41.66,71.52-120.63,146.69-108.18,116.31,19.25,89.98,132.31,98.1,172.06Z"/><path class="cls-3" d="M2689.86,1643.94c1.38,0,2.62-.93,2.96-2.33,14.89-61.82,8.14-112.52-20.09-150.69-46.84-63.35-137.87-69.62-138.78-69.68-1.43-.24-3.12,1.17-3.22,2.86-.1,1.68,1.17,3.12,2.85,3.22,.89,.05,89.16,6.18,134.28,67.26,27.08,36.65,33.49,85.64,19.04,145.61-.39,1.63,.61,3.28,2.25,3.67,.24,.05,.48,.08,.71,.08Z"/><path class="cls-6" d="M2391.71,1700.53c.12,0,.26-.02,.39-.05,.81-.21,1.3-1.05,1.09-1.86-14.5-55.65-39.96-94.3-75.64-114.88-25.96-14.98-50.27-16.37-71.71-17.6-20.68-1.19-38.54-2.22-52.91-15-29.71-26.42-27.99-89.95,5.11-188.82,.27-.8-.17-1.66-.96-1.93-.8-.27-1.66,.17-1.93,.96-33.53,100.13-34.96,164.74-4.25,192.05,15.16,13.49,33.51,14.55,54.76,15.77,21.11,1.21,45.03,2.59,70.37,17.2,34.95,20.15,59.92,58.18,74.21,113.02,.18,.68,.8,1.14,1.48,1.14Z"/><path class="cls-6" d="M2225.86,1232.1c.16,0,.32-.02,.49-.08,.8-.27,1.22-1.14,.96-1.93-11.53-34.3-44.75-29.21-79.95-23.79-22.28,3.43-45.31,6.95-64.85,1.17-14.58-4.32-23.24-11.02-25.74-19.91-4.28-15.14,10.7-32.01,10.85-32.19,.57-.62,.51-1.59-.11-2.15-.62-.56-1.59-.51-2.15,.11-.67,.74-16.24,18.28-11.53,35.04,2.81,9.96,12.16,17.37,27.81,22,20.2,5.98,43.57,2.4,66.18-1.08,35.33-5.42,65.88-10.13,76.6,21.76,.21,.64,.81,1.03,1.44,1.03Z"/></g><g><path class="cls-33" d="M2561.54,885.59c0-157.03,133.02-284.31,292.64-284.29,154.91,.02,277.16,120.6,277.16,269.32s-122.25,275.72-277.16,283.88c-159.63,8.41-292.64-111.88-292.64-268.91Z"/><path class="cls-25" d="M2588.24,884.89c0-142.31,120.55-257.66,265.22-257.65,140.39,.02,251.19,109.3,251.19,244.08s-110.8,249.88-251.19,257.28c-144.67,7.62-265.22-101.4-265.22-243.71Z"/><g><path class="cls-2" d="M2767.53,868.75h-23.77v-94.72c0-37.2,27.85-68.64,64.78-73.13l48.6-5.91c20.92-2.54,41.96,4.01,57.73,17.99,15.77,13.97,24.82,34.07,24.82,55.14v82.69h-23.77v-82.69c0-14.27-6.13-27.89-16.81-37.35-10.68-9.46-24.94-13.91-39.11-12.18l-48.6,5.91c-25.02,3.04-43.88,24.34-43.88,49.53v94.72Z"/><path class="cls-2" d="M2736.73,847.48l208.35-11.54c8.46-.47,15.58,6.27,15.58,14.74v165.06c0,8.15-6.61,14.76-14.76,14.76h-203.34c-7.97,0-14.5-6.32-14.76-14.28l-5.01-153.51c-.26-8.02,5.93-14.78,13.94-15.22Z"/><path class="cls-31" d="M2875.69,983.22l-12.61-36.26c-1.52-4.36-.48-9.23,2.76-12.52,6.46-6.55,10.31-15.68,9.86-25.71-.8-17.69-15.25-32.02-32.94-32.7-19.58-.75-35.69,14.9-35.69,34.31,0,10.77,4.96,20.37,12.72,26.67,4.02,3.26,5.68,8.63,3.98,13.52l-11.37,32.69c-2.77,7.95,3.14,16.25,11.55,16.25h40.19c8.42,0,14.32-8.3,11.56-16.25Z"/></g></g><g><g><g class="cls-19"><path class="cls-27" d="M1120.51,2976.66c2.52,5.31,.86,11.87-4.01,15.1-10.65,7.08-21.75,13.78-32.99,19.91-5.47,2.98-12.22,.74-15.07-5.01-.03-.07-.07-.14-.1-.21-2.7-5.71-.57-12.66,4.83-15.61,10.68-5.83,21.22-12.19,31.34-18.92,5.2-3.46,12.11-1.83,15.42,3.65,.21,.35,.41,.71,.58,1.08Zm-87.42,44.64c.19,.41,.37,.84,.52,1.28,2.08,6.1-.94,12.81-6.75,14.98-11.93,4.46-24.16,8.42-36.34,11.79-5.96,1.65-12.05-2.08-13.66-8.37-1.58-6.27,1.98-12.68,7.93-14.32,11.59-3.2,23.2-6.97,34.54-11.2,5.38-2.01,11.27,.58,13.76,5.84Zm-94.65,23.29c.55,1.17,.93,2.46,1.09,3.83,.73,6.43-3.63,12.26-9.76,13.02-12.55,1.56-25.33,2.55-37.97,2.97-6.17,.2-11.32-4.89-11.54-11.36-.21-6.47,4.62-11.89,10.79-12.09,12.01-.39,24.13-1.34,36.06-2.82,4.82-.6,9.29,2.12,11.34,6.45Zm-97.31,.46c.92,1.93,1.33,4.16,1.1,6.46-.65,6.44-6.15,11.09-12.29,10.39-12.58-1.44-25.26-3.46-37.67-6.02-6.05-1.25-10.01-7.41-8.84-13.77,1.17-6.36,7.03-10.5,13.09-9.25,11.79,2.43,23.83,4.36,35.78,5.72,3.94,.45,7.18,3,8.82,6.47Zm-95.01-22.34c1.28,2.71,1.57,5.94,.57,9.03-2,6.13-8.35,9.38-14.18,7.27-11.94-4.32-23.88-9.24-35.47-14.62-5.65-2.62-8.22-9.54-5.73-15.47,2.48-5.92,9.07-8.6,14.72-5.98,11.02,5.12,22.36,9.79,33.71,13.9,2.9,1.05,5.12,3.22,6.38,5.89Zm-87.98-43.85c1.66,3.51,1.62,7.82-.49,11.39-3.24,5.51-10.12,7.2-15.37,3.79-10.76-7-21.37-14.57-31.53-22.5-4.96-3.87-6-11.22-2.32-16.42,3.67-5.19,10.67-6.27,15.62-2.4,9.66,7.54,19.73,14.73,29.96,21.38,1.84,1.2,3.23,2.86,4.13,4.76Zm-206.16-372.88c.69,1.46,1.1,3.08,1.16,4.81,.42,12.6,1.38,25.34,2.83,37.89,.75,6.43-3.61,12.27-9.73,13.04-6.12,.77-11.69-3.82-12.44-10.25-1.54-13.21-2.54-26.64-2.99-39.9-.22-6.48,4.6-11.9,10.77-12.11,4.52-.16,8.51,2.53,10.4,6.53Zm129.62,309.71c2.06,4.36,1.39,9.79-2.04,13.45-4.33,4.61-11.4,4.65-15.79,.1-9.02-9.33-17.76-19.19-25.98-29.3-3.99-4.95-3.47-12.33,1.22-16.54,4.69-4.2,11.74-3.61,15.75,1.32,7.81,9.6,16.1,18.96,24.67,27.82,.91,.94,1.64,2.01,2.17,3.14Zm-115.25-208.61c.33,.69,.6,1.43,.8,2.21,3.1,12.19,6.74,24.4,10.82,36.3,2.09,6.1-.92,12.82-6.72,15-5.8,2.18-12.23-.98-14.29-7.09-4.29-12.52-8.12-25.37-11.39-38.2-1.59-6.26,1.95-12.69,7.91-14.34,5.22-1.45,10.56,1.23,12.88,6.13Zm54.02,129.1c2.51,5.31,.86,11.85-3.99,15.09-5.2,3.47-12.1,1.85-15.43-3.61-6.79-11.2-13.22-22.85-19.1-34.65-.04-.07-.07-.15-.11-.22-2.7-5.7-.58-12.64,4.81-15.6,5.47-2.99,12.21-.77,15.08,4.98,5.58,11.2,11.69,22.27,18.15,32.91,.21,.36,.41,.73,.59,1.1Z"/><path class="cls-28" d="M456.31,2523.74c.98,2.07,1.39,4.46,1.05,6.92-.84,5.98-1.57,12.08-2.18,18.13-.65,6.44-6.15,11.1-12.28,10.4-6.13-.69-10.59-6.48-9.93-12.92,.64-6.36,1.41-12.78,2.29-19.07,.9-6.41,6.57-10.83,12.67-9.87,3.76,.59,6.81,3.08,8.38,6.41Z"/></g><g class="cls-19"><path class="cls-26" d="M633.41,2218.74c2.4,5.07,1.02,11.36-3.51,14.75-4.68,3.5-9.38,7.17-13.95,10.9-4.87,3.97-11.88,3.04-15.68-2.08-3.81-5.14-2.92-12.49,1.94-16.46,4.81-3.92,9.75-7.79,14.68-11.48,5.02-3.75,11.99-2.52,15.58,2.76,.35,.52,.66,1.06,.92,1.61Z"/><path class="cls-29" d="M1275.89,2387.81c2.29,4.84,4.51,9.73,6.66,14.69,2.56,5.9,.09,12.85-5.52,15.53-5.61,2.68-12.27,.04-14.8-5.84-4.96-11.43-10.36-22.63-16.1-33.4-3.01-5.67-1.1-12.8,4.28-15.96,5.38-3.16,12.19-1.12,15.21,4.53,3.55,6.66,7.01,13.54,10.28,20.44Zm27.42,72.71c.28,.59,.51,1.21,.7,1.86,3.59,12.54,6.72,25.38,9.3,38.16,1.28,6.34-2.58,12.56-8.61,13.88-6.04,1.33-11.98-2.74-13.24-9.08-2.45-12.14-5.42-24.33-8.83-36.25-1.78-6.21,1.57-12.74,7.47-14.59,5.29-1.66,10.83,1,13.22,6.03Zm-69.92-144.86c2.35,4.96,1.09,11.11-3.26,14.56-4.92,3.9-11.92,2.86-15.65-2.31-7.12-9.9-14.74-19.61-22.66-28.87-4.12-4.83-3.75-12.24,.83-16.56,4.59-4.32,11.65-3.91,15.78,.92,8.33,9.75,16.36,19.98,23.86,30.41,.43,.6,.79,1.22,1.1,1.87Zm87.27,243.82c.63,1.33,1.03,2.82,1.14,4.39,.88,13.04,1.25,26.29,1.08,39.35-.08,6.48-5.15,11.64-11.32,11.54-6.17-.1-11.1-5.43-11.02-11.91,.16-12.41-.19-24.98-1.03-37.37-.44-6.46,4.2-12.06,10.35-12.51,4.65-.34,8.84,2.37,10.8,6.5Zm-153.12-316.91c1.92,4.07,1.5,9.11-1.46,12.79-3.98,4.94-11.03,5.55-15.74,1.36-9.01-8.01-18.48-15.73-28.13-22.95-5.03-3.76-6.22-11.08-2.65-16.36,3.57-5.27,10.54-6.5,15.57-2.74,10.17,7.6,20.13,15.72,29.62,24.16,1.2,1.07,2.14,2.35,2.8,3.74Zm-79.49-56.18c1.54,3.25,1.63,7.2-.09,10.66-2.85,5.74-9.6,7.95-15.07,4.94-10.49-5.77-21.33-11.14-32.22-15.97-5.69-2.51-8.37-9.39-5.98-15.37,2.39-5.97,8.93-8.76,14.62-6.24,11.46,5.08,22.87,10.74,33.91,16.81,2.17,1.19,3.82,3.03,4.83,5.18Zm-89.22-36.68c1.17,2.47,1.52,5.38,.79,8.26-1.59,6.25-7.71,9.96-13.67,8.27-11.44-3.24-23.13-6.01-34.75-8.23-6.07-1.16-10.11-7.26-9.02-13.64,1.09-6.37,6.89-10.6,12.97-9.44,12.23,2.34,24.53,5.25,36.57,8.66,3.22,.91,5.74,3.22,7.12,6.13Zm-94.66-15.39c.81,1.71,1.23,3.66,1.15,5.7-.25,6.47-5.45,11.49-11.61,11.21-11.82-.54-23.8-.55-35.6-.04-6.16,.27-11.38-4.77-11.65-11.23-.27-6.47,4.51-11.94,10.67-12.21,12.43-.54,25.04-.53,37.49,.04,4.22,.19,7.79,2.82,9.55,6.53Zm-95.55,6.81c.46,.96,.79,2.01,.98,3.12,1.11,6.37-2.9,12.48-8.97,13.63-11.61,2.21-23.28,4.97-34.7,8.2-5.95,1.69-12.09-2.04-13.71-8.27-1.62-6.25,1.89-12.69,7.84-14.38,12.02-3.41,24.3-6.31,36.53-8.63,5.01-.95,9.86,1.77,12.02,6.33Zm-91.68,28.67c.1,.22,.2,.44,.29,.66,2.41,5.97-.25,12.85-5.92,15.36-8.02,3.55-16.02,7.4-23.8,11.45-2.82,1.47-5.61,2.96-8.38,4.48-5.46,3-12.22,.77-15.08-4.97-3.01-5.76-.77-12.83,4.69-15.83,2.92-1.6,5.85-3.17,8.82-4.72,8.18-4.26,16.61-8.31,25.04-12.04,5.46-2.42,11.74,.08,14.35,5.6Z"/><path class="cls-39" d="M1316.8,2660.25c.99,2.09,1.4,4.51,1.04,6.98-.91,6.28-1.96,12.65-3.13,18.95-1.18,6.36-7.04,10.5-13.09,9.24-6.05-1.25-10.01-7.41-8.83-13.77,1.11-5.98,2.11-12.04,2.97-17.99,.92-6.4,6.62-10.79,12.72-9.8,3.74,.61,6.76,3.09,8.32,6.4Z"/></g><g><path class="cls-41" d="M1194.11,2706.4c.92-2.13,.45-4.64-1.17-6.25l-46.2-45.92c5.73-30.56,6.87-62.31,2.88-94.12l48.85-42.47c1.71-1.49,2.34-3.96,1.55-6.15l-26.91-74.95c-.79-2.19-2.81-3.62-5.03-3.56l-63.46,1.76c-17.01-26.67-37.84-49.78-61.38-68.81l5.87-66.43c.21-2.33-1.02-4.54-3.05-5.51l-69.44-33.14c-2.03-.97-4.42-.48-5.95,1.22l-43.61,48.41c-29.11-6.09-59.35-7.36-89.62-3.25l-40.56-51.41c-1.42-1.8-3.77-2.46-5.86-1.64l-71.3,28.08c-2.08,.82-3.44,2.94-3.37,5.28l1.83,66.66c-25.35,17.8-47.3,39.62-65.36,64.3l-63.26-6.32c-2.22-.22-4.32,1.06-5.24,3.19l-31.39,72.86c-.92,2.13-.45,4.64,1.17,6.25l46.2,45.92c-5.73,30.56-6.87,62.31-2.88,94.12l-48.85,42.48c-1.71,1.49-2.34,3.96-1.55,6.15l26.91,74.95c.79,2.19,2.81,3.62,5.03,3.56l63.46-1.76c17.01,26.67,37.84,49.78,61.37,68.81l-5.87,66.43c-.21,2.33,1.02,4.54,3.05,5.51l69.44,33.14c2.03,.97,4.42,.48,5.95-1.22l43.61-48.41c29.11,6.09,59.35,7.36,89.62,3.25l40.56,51.41c1.42,1.8,3.78,2.46,5.86,1.64l71.3-28.08c2.08-.82,3.44-2.94,3.38-5.28l-1.83-66.66c25.35-17.8,47.3-39.62,65.36-64.3l63.26,6.32c2.22,.22,4.32-1.06,5.24-3.19l31.39-72.86Z"/><path class="cls-5" d="M942.13,2561.68c16.64,35.15,6.7,78.79-24.84,101.77-34.67,25.26-82.5,16.14-106.63-20.33-11.7-17.67-16.14-39.04-12.54-60.18,3.61-21.14,14.84-39.53,31.63-51.76,34.67-25.26,82.5-16.14,106.63,20.33,2.17,3.29,4.09,6.69,5.74,10.18Zm-121.25,62.87c1.28,2.71,2.76,5.35,4.44,7.88,18.5,27.96,55.18,34.95,81.76,15.59,26.58-19.37,33.16-57.87,14.65-85.83-18.5-27.96-55.18-34.95-81.76-15.59-12.88,9.38-21.49,23.48-24.26,39.69-2.25,13.18-.41,26.47,5.17,38.26Z"/><path class="cls-5" d="M1040.47,2508.68c2.86,6.04,5.44,12.26,7.74,18.65h0c.72,2.01,1.41,4.04,2.08,6.07,3.26,10.04,5.75,20.33,7.44,30.72,.02,.14,.05,.28,.07,.42,.06,.4,.13,.8,.19,1.21,.12,.78,.24,1.57,.35,2.35,.29,2.06-.74,4.01-2.42,4.89-.41,.21-.86,.36-1.34,.44-2.44,.38-4.71-1.4-5.08-3.96-1.88-13.19-5.12-26.26-9.65-38.85-22.44-62.53-73.29-105.31-131.34-118.24-32.28-7.19-66.79-5.14-99.87,7.89-5.8,2.28-11.45,4.86-16.93,7.71-36.85,19.18-66.03,50.83-83.21,90.72-19.74,45.82-21.29,97.01-4.37,144.14,34.96,97.34,138.66,146.8,231.21,110.35,5.71-2.25,11.28-4.79,16.71-7.61,23.51-12.23,44.19-29.74,60.51-51.34,.42-.56,.94-.99,1.51-1.28,1.5-.78,3.36-.64,4.76,.53,1.93,1.62,2.27,4.56,.73,6.59-17.13,22.68-38.85,41.06-63.52,53.9-5.69,2.96-11.55,5.63-17.54,7.99-97.17,38.28-206.06-13.72-242.73-115.84-17.77-49.48-16.13-103.22,4.59-151.32,18.04-41.87,48.67-75.11,87.35-95.24,5.75-2.99,11.68-5.69,17.77-8.09,47.07-18.54,98.24-16.7,144.09,5.18,39.92,19.05,71.64,51.32,90.9,92.01Z"/></g></g><g><g class="cls-19"><path class="cls-40" d="M1553.83,3198.36c1.33,2.81,.81,6.3-1.49,8.54-4.29,4.17-8.77,8.26-13.3,12.16-2.94,2.53-7.29,2.07-9.71-1.03-2.43-3.09-1.99-7.66,.95-10.19,4.32-3.71,8.58-7.61,12.68-11.59,2.79-2.71,7.15-2.52,9.75,.41,.46,.52,.83,1.1,1.11,1.7Z"/><path class="cls-38" d="M1511.76,3232.23c1.56,3.29,.52,7.35-2.49,9.34-8.52,5.64-17.42,10.87-26.44,15.57-1.9,.99-3.82,1.96-5.75,2.91-3.45,1.7-7.52-.12-9.19-3.48-1.63-3.62-.15-7.94,3.29-9.64,1.85-.91,3.68-1.83,5.49-2.78,8.61-4.48,17.09-9.47,25.22-14.85,3.22-2.13,7.48-1.11,9.52,2.28,.12,.22,.24,.43,.35,.65Zm-64.78,31.92c.15,.31,.28,.63,.38,.96,1.19,3.81-.77,7.9-4.39,9.14-11.61,4-23.55,7.27-35.5,9.73-3.74,.77-7.37-1.81-8.11-5.72-.74-3.93,1.68-7.73,5.42-8.5,11.4-2.35,22.8-5.47,33.87-9.29,3.3-1.13,6.83,.49,8.33,3.66Zm-70.25,14.45c.39,.82,.63,1.74,.7,2.71,.27,3.99-2.59,7.45-6.39,7.73-12.17,.88-24.54,.97-36.74,.26-3.81-.22-6.72-3.63-6.52-7.64,.2-3.99,3.45-7.05,7.25-6.83,11.64,.67,23.42,.59,35.03-.25,2.87-.21,5.46,1.47,6.67,4.02Zm-71.53-4.14c.64,1.34,.88,2.91,.62,4.49-.67,3.94-4.25,6.56-8,5.84-12.04-2.28-24.04-5.37-35.69-9.18-3.64-1.19-5.67-5.26-4.55-9.07,1.12-3.82,4.98-5.95,8.63-4.76,11.1,3.63,22.56,6.58,34.03,8.76,2.24,.42,4.03,1.94,4.97,3.92Zm-68.44-22.36c.89,1.88,1,4.14,.12,6.2-1.56,3.64-5.64,5.26-9.12,3.62-11.14-5.29-22.07-11.34-32.5-18-3.27-2.08-4.3-6.54-2.33-9.96,1.97-3.42,6.22-4.5,9.47-2.42,9.95,6.35,20.38,12.13,31.01,17.17,1.51,.72,2.66,1.94,3.35,3.39Zm-61.23-39.11c1.15,2.43,.95,5.45-.76,7.72-2.36,3.13-6.69,3.66-9.69,1.18-9.59-7.97-18.79-16.63-27.36-25.77-2.67-2.87-2.64-7.44,.06-10.25,2.71-2.8,7.08-2.76,9.75,.09,8.17,8.71,16.94,16.97,26.08,24.56,.83,.69,1.46,1.53,1.9,2.46Zm-50.29-53.61c1.44,3.04,.68,6.82-1.97,8.96-3.02,2.43-7.35,1.82-9.68-1.36-7.41-10.16-14.32-20.93-20.53-32.03-1.88-3.49-.83-7.9,2.45-9.91,3.28-2.02,7.51-.86,9.44,2.59,5.92,10.59,12.5,20.87,19.57,30.55,.28,.38,.51,.78,.71,1.19Zm-48.51-100.41c.18,.37,.33,.77,.44,1.19,2.84,10.14,6.25,20.3,10.16,30.19,.58,1.5,1.17,2.97,1.78,4.42,1.52,3.68-.08,7.94-3.58,9.52-3.5,1.59-7.67-.08-9.08-3.78-.64-1.56-1.27-3.11-1.88-4.69-4.07-10.34-7.65-20.98-10.63-31.62-1.07-3.84,1.01-7.86,4.67-8.98,3.26-1,6.66,.64,8.12,3.73Z"/></g><g class="cls-19"><path class="cls-42" d="M1614.7,2834.22c1.68,3.54,.34,7.85-3.02,9.66-3.39,1.82-7.55,.41-9.29-3.15-5.24-10.73-11.15-21.21-17.57-31.16-2.1-3.32-1.32-7.82,1.84-10.06,3.16-2.24,7.44-1.36,9.58,1.95,6.72,10.44,12.92,21.42,18.42,32.67,0,0,.03,.06,.04,.09Zm14.22,33.96c.11,.24,.21,.47,.3,.72,4.17,11.84,7.71,24.06,10.5,36.33,.88,3.9-1.4,7.8-5.1,8.72-3.71,.93-7.43-1.51-8.32-5.38-2.66-11.71-6.03-23.37-10.01-34.67-1.33-3.75,.5-7.92,4.07-9.3,3.34-1.29,7.02,.3,8.57,3.58Zm-53.76-95.27c1.36,2.88,.77,6.46-1.64,8.68-2.86,2.62-7.22,2.31-9.73-.71-7.56-9.09-15.71-17.77-24.22-25.8-2.83-2.7-3.08-7.26-.53-10.23,2.54-2.97,6.9-3.21,9.74-.54,8.92,8.42,17.46,17.52,25.39,27.05,.4,.48,.73,1,.99,1.55Zm70.11,167.32c.35,.74,.58,1.55,.68,2.42,1.35,12.55,1.97,25.3,1.84,37.91-.04,4-3.16,7.2-6.97,7.15-3.8-.06-6.86-3.34-6.82-7.34,.12-12.03-.48-24.19-1.76-36.15-.42-3.98,2.3-7.56,6.08-7.99,2.96-.34,5.69,1.34,6.95,3.99Zm-122.57-216.8c1.09,2.3,.98,5.13-.51,7.38-2.18,3.28-6.48,4.07-9.61,1.78-9.39-6.9-19.27-13.28-29.39-18.94-3.37-1.88-4.65-6.28-2.86-9.81,1.79-3.53,5.96-4.87,9.33-2.98,10.61,5.94,20.97,12.62,30.82,19.86,.98,.72,1.73,1.67,2.22,2.72Zm-62.2-34.86c.83,1.76,.99,3.86,.27,5.83-1.37,3.73-5.36,5.59-8.91,4.14-10.71-4.35-21.76-8.06-32.85-11.03-3.7-.99-5.94-4.94-5-8.81,.93-3.88,4.68-6.22,8.37-5.23,11.62,3.11,23.21,6.99,34.43,11.55,1.67,.68,2.96,1.97,3.7,3.54Zm-68.33-18.22c.59,1.24,.85,2.66,.66,4.13-.47,3.97-3.93,6.77-7.71,6.26-11.38-1.54-22.95-2.36-34.39-2.43-3.8-.03-6.89-3.29-6.87-7.29,.01-4,3.11-7.23,6.92-7.2,11.99,.08,24.12,.93,36.06,2.55,2.38,.32,4.32,1.88,5.31,3.98Z"/><path class="cls-43" d="M1644.52,3014.57c.59,1.25,.85,2.7,.66,4.19-.78,6.14-1.74,12.29-2.85,18.27-.73,3.92-4.35,6.48-8.09,5.71-3.73-.78-6.18-4.58-5.46-8.51,1.06-5.7,1.97-11.57,2.72-17.43,.51-3.97,3.98-6.74,7.75-6.2,2.36,.34,4.28,1.89,5.26,3.97Z"/></g><g><path class="cls-44" d="M1562.19,3050.67c.61-1.42,.3-3.1-.78-4.18l-30.91-30.73c3.84-20.45,4.59-41.7,1.93-62.98l32.69-28.42c1.15-1,1.56-2.65,1.04-4.11l-18.01-50.15c-.53-1.47-1.88-2.42-3.37-2.38l-42.47,1.18c-11.38-17.85-25.32-33.31-41.07-46.04l3.93-44.45c.14-1.56-.68-3.04-2.04-3.69l-46.47-22.18c-1.36-.65-2.96-.32-3.98,.81l-29.18,32.4c-19.48-4.08-39.71-4.92-59.97-2.18l-27.14-34.4c-.95-1.21-2.53-1.65-3.92-1.1l-47.71,18.79c-1.39,.55-2.3,1.97-2.26,3.53l1.22,44.61c-16.97,11.91-31.65,26.51-43.74,43.02l-42.33-4.23c-1.48-.15-2.89,.71-3.5,2.13l-21,48.75c-.61,1.42-.3,3.1,.78,4.18l30.92,30.73c-3.84,20.45-4.59,41.7-1.93,62.98l-32.69,28.42c-1.15,1-1.56,2.65-1.04,4.11l18.01,50.15c.53,1.47,1.88,2.42,3.37,2.38l42.47-1.18c11.38,17.85,25.32,33.31,41.07,46.04l-3.93,44.45c-.14,1.56,.68,3.04,2.04,3.69l46.47,22.18c1.36,.65,2.96,.32,3.98-.81l29.18-32.4c19.48,4.08,39.71,4.92,59.97,2.18l27.14,34.4c.95,1.21,2.53,1.65,3.92,1.1l47.71-18.79c1.39-.55,2.3-1.97,2.26-3.53l-1.22-44.61c16.97-11.91,31.65-26.51,43.74-43.02l42.33,4.23c1.48,.15,2.89-.71,3.51-2.13l21-48.75Z"/><path class="cls-5" d="M1394.44,2953.48c4.96,10.48,6.59,22.29,4.59,34-2.46,14.4-10.11,26.92-21.55,35.26-23.6,17.2-56.18,10.99-72.63-13.84-16.42-24.91-10.6-59.06,13.01-76.26,11.44-8.34,25.29-11.49,39.01-8.87,13.72,2.61,25.66,10.68,33.63,22.72,1.49,2.25,2.8,4.59,3.94,7Zm-81.14,42.06c.83,1.75,1.78,3.45,2.87,5.1,12.1,18.27,36.06,22.84,53.43,10.18,8.41-6.13,14.05-15.34,15.85-25.93,1.81-10.6-.43-21.3-6.28-30.16h0c-5.86-8.85-14.64-14.79-24.73-16.71-10.1-1.92-20.29,.39-28.7,6.53-15.8,11.51-20.78,33.38-12.44,51Z"/><path class="cls-5" d="M1462.94,2916.68c1.94,4.11,3.71,8.35,5.28,12.73,3.13,8.7,5.41,17.74,6.8,26.89,.06,.41,.12,.82,.18,1.24,.46,3.19-1.14,6.19-3.74,7.55-.63,.33-1.33,.56-2.06,.67-3.77,.58-7.26-2.16-7.84-6.11-1.22-8.56-3.32-17.02-6.24-25.15h0c-.16-.45-.33-.9-.49-1.34-7.08-19.17-18.45-35.78-33-48.74-7.9-7.04-16.75-13-26.38-17.71-.08-.04-.16-.08-.23-.12-.24-.11-.48-.23-.72-.35-28.27-13.49-59.83-14.63-88.85-3.19-3.76,1.48-7.41,3.14-10.96,4.99-23.86,12.42-42.74,32.91-53.87,58.73-12.78,29.66-13.78,62.8-2.82,93.31,10.96,30.49,32.56,54.75,60.82,68.24,28.27,13.49,59.83,14.63,88.85,3.19,3.69-1.45,7.3-3.1,10.81-4.93,15.22-7.92,28.61-19.25,39.17-33.24,.65-.86,1.45-1.53,2.33-1.98,2.32-1.2,5.19-.98,7.36,.82,2.98,2.5,3.49,7.05,1.12,10.18-11.82,15.64-26.8,28.33-43.82,37.19-3.93,2.05-7.97,3.89-12.1,5.52-32.48,12.79-67.78,11.52-99.41-3.57-31.62-15.1-55.81-42.18-68.05-76.34-12.26-34.14-11.14-71.21,3.17-104.4,12.44-28.89,33.58-51.82,60.27-65.71,3.96-2.06,8.05-3.93,12.25-5.58,62.87-24.76,132.85,5.24,162.18,67.18Z"/></g></g></g></svg>